<mxfile host="app.diagrams.net" modified="2022-03-29T08:57:03.165Z" agent="5.0 (Windows NT 10.0; Win64; x64) AppleWebKit/537.36 (KHTML, like Gecko) Chrome/99.0.4844.84 Safari/537.36" etag="wA7_qT6H0WK9Wn7rXI7H" version="17.2.4" type="github">
  <diagram id="kWc_zq4dLTA85kbcVT-v" name="Page-1">
    <mxGraphModel dx="1733" dy="1941" grid="1" gridSize="10" guides="1" tooltips="1" connect="1" arrows="1" fold="1" page="1" pageScale="1" pageWidth="827" pageHeight="1169" math="0" shadow="0">
      <root>
        <mxCell id="0" />
        <mxCell id="1" parent="0" />
        <mxCell id="IZ-xSOK3iDzSilFH6v1d-1" value="&lt;font style=&quot;font-size: 14px&quot;&gt;MEMBER&lt;/font&gt;" style="rounded=0;whiteSpace=wrap;html=1;" parent="1" vertex="1">
          <mxGeometry x="140" y="260" width="140" height="50" as="geometry" />
        </mxCell>
        <mxCell id="IZ-xSOK3iDzSilFH6v1d-2" value="" style="endArrow=none;html=1;rounded=0;" parent="1" source="IZ-xSOK3iDzSilFH6v1d-1" target="oKFqAY_ekMmdnwvd7Q_i-12" edge="1">
          <mxGeometry width="50" height="50" relative="1" as="geometry">
            <mxPoint x="390" y="240" as="sourcePoint" />
            <mxPoint x="410" y="140" as="targetPoint" />
          </mxGeometry>
        </mxCell>
        <mxCell id="IZ-xSOK3iDzSilFH6v1d-3" value="&lt;font style=&quot;font-size: 14px&quot;&gt;SUBUNIT&lt;/font&gt;" style="rounded=0;whiteSpace=wrap;html=1;" parent="1" vertex="1">
          <mxGeometry x="690" y="247.5" width="120" height="60" as="geometry" />
        </mxCell>
        <mxCell id="oKFqAY_ekMmdnwvd7Q_i-1" value="Name" style="ellipse;whiteSpace=wrap;html=1;" parent="1" vertex="1">
          <mxGeometry x="175" y="130" width="70" height="30" as="geometry" />
        </mxCell>
        <mxCell id="oKFqAY_ekMmdnwvd7Q_i-2" value="MemID" style="ellipse;whiteSpace=wrap;html=1;" parent="1" vertex="1">
          <mxGeometry x="20" y="210" width="70" height="40" as="geometry" />
        </mxCell>
        <mxCell id="oKFqAY_ekMmdnwvd7Q_i-3" value="&lt;u&gt;Name&lt;/u&gt;" style="ellipse;whiteSpace=wrap;html=1;" parent="1" vertex="1">
          <mxGeometry x="660" y="-140" width="62.5" height="40" as="geometry" />
        </mxCell>
        <mxCell id="oKFqAY_ekMmdnwvd7Q_i-4" value="&lt;u&gt;Name&lt;/u&gt;" style="ellipse;whiteSpace=wrap;html=1;" parent="1" vertex="1">
          <mxGeometry x="135" y="625" width="70" height="35" as="geometry" />
        </mxCell>
        <mxCell id="oKFqAY_ekMmdnwvd7Q_i-5" value="&lt;u&gt;Name&lt;/u&gt;" style="ellipse;whiteSpace=wrap;html=1;" parent="1" vertex="1">
          <mxGeometry x="660" y="170" width="70" height="40" as="geometry" />
        </mxCell>
        <mxCell id="oKFqAY_ekMmdnwvd7Q_i-6" value="&lt;u&gt;Name&lt;/u&gt;" style="ellipse;whiteSpace=wrap;html=1;" parent="1" vertex="1">
          <mxGeometry x="630" y="665" width="70" height="40" as="geometry" />
        </mxCell>
        <mxCell id="oKFqAY_ekMmdnwvd7Q_i-12" value="Address" style="ellipse;whiteSpace=wrap;html=1;" parent="1" vertex="1">
          <mxGeometry x="102.5" y="140" width="75" height="35" as="geometry" />
        </mxCell>
        <mxCell id="oKFqAY_ekMmdnwvd7Q_i-17" value="" style="endArrow=none;html=1;rounded=0;" parent="1" source="IZ-xSOK3iDzSilFH6v1d-1" target="oKFqAY_ekMmdnwvd7Q_i-10" edge="1">
          <mxGeometry width="50" height="50" relative="1" as="geometry">
            <mxPoint x="290" y="310" as="sourcePoint" />
            <mxPoint x="340" y="260" as="targetPoint" />
          </mxGeometry>
        </mxCell>
        <mxCell id="oKFqAY_ekMmdnwvd7Q_i-18" value="" style="endArrow=none;html=1;rounded=0;" parent="1" source="IZ-xSOK3iDzSilFH6v1d-1" target="oKFqAY_ekMmdnwvd7Q_i-11" edge="1">
          <mxGeometry width="50" height="50" relative="1" as="geometry">
            <mxPoint x="290" y="310" as="sourcePoint" />
            <mxPoint x="340" y="260" as="targetPoint" />
          </mxGeometry>
        </mxCell>
        <mxCell id="oKFqAY_ekMmdnwvd7Q_i-19" value="" style="endArrow=none;html=1;rounded=0;" parent="1" source="IZ-xSOK3iDzSilFH6v1d-1" target="oKFqAY_ekMmdnwvd7Q_i-133" edge="1">
          <mxGeometry width="50" height="50" relative="1" as="geometry">
            <mxPoint x="290" y="310" as="sourcePoint" />
            <mxPoint x="348.56419961079564" y="173.24323484597767" as="targetPoint" />
          </mxGeometry>
        </mxCell>
        <mxCell id="oKFqAY_ekMmdnwvd7Q_i-20" value="" style="endArrow=none;html=1;rounded=0;" parent="1" source="IZ-xSOK3iDzSilFH6v1d-1" target="oKFqAY_ekMmdnwvd7Q_i-1" edge="1">
          <mxGeometry width="50" height="50" relative="1" as="geometry">
            <mxPoint x="170" y="290" as="sourcePoint" />
            <mxPoint x="220" y="240" as="targetPoint" />
          </mxGeometry>
        </mxCell>
        <mxCell id="oKFqAY_ekMmdnwvd7Q_i-21" value="" style="endArrow=none;html=1;rounded=0;" parent="1" source="IZ-xSOK3iDzSilFH6v1d-1" target="oKFqAY_ekMmdnwvd7Q_i-15" edge="1">
          <mxGeometry width="50" height="50" relative="1" as="geometry">
            <mxPoint x="290" y="310" as="sourcePoint" />
            <mxPoint x="340" y="260" as="targetPoint" />
          </mxGeometry>
        </mxCell>
        <mxCell id="oKFqAY_ekMmdnwvd7Q_i-22" value="" style="endArrow=none;html=1;rounded=0;" parent="1" source="oKFqAY_ekMmdnwvd7Q_i-2" target="IZ-xSOK3iDzSilFH6v1d-1" edge="1">
          <mxGeometry width="50" height="50" relative="1" as="geometry">
            <mxPoint x="200" y="320" as="sourcePoint" />
            <mxPoint x="340" y="260" as="targetPoint" />
          </mxGeometry>
        </mxCell>
        <mxCell id="oKFqAY_ekMmdnwvd7Q_i-23" value="" style="endArrow=none;html=1;rounded=0;" parent="1" source="IZ-xSOK3iDzSilFH6v1d-1" target="oKFqAY_ekMmdnwvd7Q_i-8" edge="1">
          <mxGeometry width="50" height="50" relative="1" as="geometry">
            <mxPoint x="255" y="300" as="sourcePoint" />
            <mxPoint x="305" y="250" as="targetPoint" />
          </mxGeometry>
        </mxCell>
        <mxCell id="oKFqAY_ekMmdnwvd7Q_i-24" value="" style="endArrow=none;html=1;rounded=0;" parent="1" source="IZ-xSOK3iDzSilFH6v1d-1" target="oKFqAY_ekMmdnwvd7Q_i-9" edge="1">
          <mxGeometry width="50" height="50" relative="1" as="geometry">
            <mxPoint x="280" y="320" as="sourcePoint" />
            <mxPoint x="330" y="270" as="targetPoint" />
          </mxGeometry>
        </mxCell>
        <mxCell id="oKFqAY_ekMmdnwvd7Q_i-25" value="" style="endArrow=none;html=1;rounded=0;" parent="1" source="IZ-xSOK3iDzSilFH6v1d-1" target="oKFqAY_ekMmdnwvd7Q_i-13" edge="1">
          <mxGeometry width="50" height="50" relative="1" as="geometry">
            <mxPoint x="290" y="310" as="sourcePoint" />
            <mxPoint x="340" y="260" as="targetPoint" />
          </mxGeometry>
        </mxCell>
        <mxCell id="oKFqAY_ekMmdnwvd7Q_i-15" value="Bdate" style="ellipse;whiteSpace=wrap;html=1;" parent="1" vertex="1">
          <mxGeometry x="230" y="155" width="70" height="35" as="geometry" />
        </mxCell>
        <mxCell id="oKFqAY_ekMmdnwvd7Q_i-10" value="Faculty" style="ellipse;whiteSpace=wrap;html=1;" parent="1" vertex="1">
          <mxGeometry x="30" y="165" width="80" height="40" as="geometry" />
        </mxCell>
        <mxCell id="oKFqAY_ekMmdnwvd7Q_i-9" value="Department" style="ellipse;whiteSpace=wrap;html=1;" parent="1" vertex="1">
          <mxGeometry x="100" y="195" width="80" height="40" as="geometry" />
        </mxCell>
        <mxCell id="oKFqAY_ekMmdnwvd7Q_i-11" value="Sex" style="ellipse;whiteSpace=wrap;html=1;" parent="1" vertex="1">
          <mxGeometry x="190" y="210" width="70" height="30" as="geometry" />
        </mxCell>
        <mxCell id="oKFqAY_ekMmdnwvd7Q_i-27" value="&lt;font style=&quot;font-size: 12px&quot;&gt;Lname&lt;/font&gt;" style="ellipse;whiteSpace=wrap;html=1;fontSize=14;" parent="1" vertex="1">
          <mxGeometry x="250" y="100" width="70" height="30" as="geometry" />
        </mxCell>
        <mxCell id="oKFqAY_ekMmdnwvd7Q_i-28" value="&lt;font style=&quot;font-size: 12px&quot;&gt;Minit&lt;/font&gt;" style="ellipse;whiteSpace=wrap;html=1;fontSize=14;" parent="1" vertex="1">
          <mxGeometry x="175" y="80" width="70" height="30" as="geometry" />
        </mxCell>
        <mxCell id="oKFqAY_ekMmdnwvd7Q_i-29" value="&lt;font style=&quot;font-size: 12px&quot;&gt;Fname&lt;/font&gt;" style="ellipse;whiteSpace=wrap;html=1;fontSize=14;" parent="1" vertex="1">
          <mxGeometry x="110" y="100" width="65" height="30" as="geometry" />
        </mxCell>
        <mxCell id="oKFqAY_ekMmdnwvd7Q_i-30" value="" style="endArrow=none;html=1;rounded=0;fontSize=12;" parent="1" source="oKFqAY_ekMmdnwvd7Q_i-1" target="oKFqAY_ekMmdnwvd7Q_i-27" edge="1">
          <mxGeometry width="50" height="50" relative="1" as="geometry">
            <mxPoint x="290" y="290" as="sourcePoint" />
            <mxPoint x="340" y="240" as="targetPoint" />
          </mxGeometry>
        </mxCell>
        <mxCell id="oKFqAY_ekMmdnwvd7Q_i-31" value="" style="endArrow=none;html=1;rounded=0;fontSize=12;" parent="1" source="oKFqAY_ekMmdnwvd7Q_i-1" target="oKFqAY_ekMmdnwvd7Q_i-28" edge="1">
          <mxGeometry width="50" height="50" relative="1" as="geometry">
            <mxPoint x="290" y="290" as="sourcePoint" />
            <mxPoint x="340" y="240" as="targetPoint" />
          </mxGeometry>
        </mxCell>
        <mxCell id="oKFqAY_ekMmdnwvd7Q_i-32" value="" style="endArrow=none;html=1;rounded=0;fontSize=12;" parent="1" source="oKFqAY_ekMmdnwvd7Q_i-1" target="oKFqAY_ekMmdnwvd7Q_i-29" edge="1">
          <mxGeometry width="50" height="50" relative="1" as="geometry">
            <mxPoint x="310" y="340" as="sourcePoint" />
            <mxPoint x="360" y="290" as="targetPoint" />
          </mxGeometry>
        </mxCell>
        <mxCell id="oKFqAY_ekMmdnwvd7Q_i-37" value="&lt;font style=&quot;font-size: 12px&quot;&gt;Capasity&lt;/font&gt;" style="ellipse;whiteSpace=wrap;html=1;align=center;fontSize=14;" parent="1" vertex="1">
          <mxGeometry x="820" y="210" width="70" height="40" as="geometry" />
        </mxCell>
        <mxCell id="oKFqAY_ekMmdnwvd7Q_i-38" value="&lt;font style=&quot;font-size: 12px&quot;&gt;Type&lt;/font&gt;" style="ellipse;whiteSpace=wrap;html=1;align=center;fontSize=14;" parent="1" vertex="1">
          <mxGeometry x="780" y="170" width="70" height="40" as="geometry" />
        </mxCell>
        <mxCell id="oKFqAY_ekMmdnwvd7Q_i-39" value="&lt;font style=&quot;font-size: 12px&quot;&gt;&lt;u&gt;SubID&lt;/u&gt;&lt;/font&gt;" style="ellipse;whiteSpace=wrap;html=1;align=center;fontSize=14;" parent="1" vertex="1">
          <mxGeometry x="610" y="210" width="70" height="35" as="geometry" />
        </mxCell>
        <mxCell id="oKFqAY_ekMmdnwvd7Q_i-40" value="WID" style="ellipse;whiteSpace=wrap;html=1;align=center;fontStyle=4;fontSize=12;" parent="1" vertex="1">
          <mxGeometry x="580" y="615" width="70" height="40" as="geometry" />
        </mxCell>
        <mxCell id="oKFqAY_ekMmdnwvd7Q_i-41" value="" style="endArrow=none;html=1;rounded=0;fontSize=12;" parent="1" source="oKFqAY_ekMmdnwvd7Q_i-38" target="IZ-xSOK3iDzSilFH6v1d-3" edge="1">
          <mxGeometry relative="1" as="geometry">
            <mxPoint x="590" y="320" as="sourcePoint" />
            <mxPoint x="750" y="320" as="targetPoint" />
          </mxGeometry>
        </mxCell>
        <mxCell id="oKFqAY_ekMmdnwvd7Q_i-42" value="" style="endArrow=none;html=1;rounded=0;fontSize=12;" parent="1" source="oKFqAY_ekMmdnwvd7Q_i-5" target="IZ-xSOK3iDzSilFH6v1d-3" edge="1">
          <mxGeometry relative="1" as="geometry">
            <mxPoint x="625" y="320" as="sourcePoint" />
            <mxPoint x="785" y="320" as="targetPoint" />
          </mxGeometry>
        </mxCell>
        <mxCell id="oKFqAY_ekMmdnwvd7Q_i-43" value="" style="endArrow=none;html=1;rounded=0;fontSize=12;" parent="1" source="oKFqAY_ekMmdnwvd7Q_i-39" target="IZ-xSOK3iDzSilFH6v1d-3" edge="1">
          <mxGeometry relative="1" as="geometry">
            <mxPoint x="590" y="320" as="sourcePoint" />
            <mxPoint x="750" y="320" as="targetPoint" />
          </mxGeometry>
        </mxCell>
        <mxCell id="oKFqAY_ekMmdnwvd7Q_i-45" value="" style="endArrow=none;html=1;rounded=0;fontSize=12;" parent="1" source="oKFqAY_ekMmdnwvd7Q_i-37" target="IZ-xSOK3iDzSilFH6v1d-3" edge="1">
          <mxGeometry relative="1" as="geometry">
            <mxPoint x="590" y="320" as="sourcePoint" />
            <mxPoint x="750" y="320" as="targetPoint" />
          </mxGeometry>
        </mxCell>
        <mxCell id="oKFqAY_ekMmdnwvd7Q_i-46" value="&lt;font style=&quot;font-size: 14px&quot;&gt;COMMITTEE&lt;/font&gt;" style="whiteSpace=wrap;html=1;align=center;fontSize=12;" parent="1" vertex="1">
          <mxGeometry x="140" y="535" width="145" height="50" as="geometry" />
        </mxCell>
        <mxCell id="oKFqAY_ekMmdnwvd7Q_i-47" value="&lt;font style=&quot;font-size: 12px&quot;&gt;&lt;u&gt;ComID&lt;/u&gt;&lt;/font&gt;" style="ellipse;whiteSpace=wrap;html=1;align=center;fontSize=14;" parent="1" vertex="1">
          <mxGeometry x="55" y="595" width="70" height="35" as="geometry" />
        </mxCell>
        <mxCell id="oKFqAY_ekMmdnwvd7Q_i-48" value="StartYear" style="ellipse;whiteSpace=wrap;html=1;align=center;fontSize=12;" parent="1" vertex="1">
          <mxGeometry x="295" y="585" width="70" height="40" as="geometry" />
        </mxCell>
        <mxCell id="oKFqAY_ekMmdnwvd7Q_i-49" value="Type" style="ellipse;whiteSpace=wrap;html=1;align=center;fontSize=12;" parent="1" vertex="1">
          <mxGeometry x="225" y="625" width="65" height="35" as="geometry" />
        </mxCell>
        <mxCell id="oKFqAY_ekMmdnwvd7Q_i-51" value="" style="endArrow=none;html=1;rounded=0;fontSize=12;" parent="1" source="oKFqAY_ekMmdnwvd7Q_i-49" target="oKFqAY_ekMmdnwvd7Q_i-46" edge="1">
          <mxGeometry relative="1" as="geometry">
            <mxPoint x="395" y="465" as="sourcePoint" />
            <mxPoint x="255" y="645" as="targetPoint" />
          </mxGeometry>
        </mxCell>
        <mxCell id="oKFqAY_ekMmdnwvd7Q_i-52" value="" style="endArrow=none;html=1;rounded=0;fontSize=12;" parent="1" source="oKFqAY_ekMmdnwvd7Q_i-46" target="oKFqAY_ekMmdnwvd7Q_i-47" edge="1">
          <mxGeometry relative="1" as="geometry">
            <mxPoint x="295" y="415" as="sourcePoint" />
            <mxPoint x="455" y="415" as="targetPoint" />
          </mxGeometry>
        </mxCell>
        <mxCell id="oKFqAY_ekMmdnwvd7Q_i-53" value="" style="endArrow=none;html=1;rounded=0;fontSize=12;" parent="1" source="oKFqAY_ekMmdnwvd7Q_i-46" target="oKFqAY_ekMmdnwvd7Q_i-48" edge="1">
          <mxGeometry relative="1" as="geometry">
            <mxPoint x="295" y="415" as="sourcePoint" />
            <mxPoint x="455" y="415" as="targetPoint" />
          </mxGeometry>
        </mxCell>
        <mxCell id="oKFqAY_ekMmdnwvd7Q_i-54" value="" style="endArrow=none;html=1;rounded=0;fontSize=12;" parent="1" source="oKFqAY_ekMmdnwvd7Q_i-46" target="oKFqAY_ekMmdnwvd7Q_i-4" edge="1">
          <mxGeometry relative="1" as="geometry">
            <mxPoint x="295" y="415" as="sourcePoint" />
            <mxPoint x="455" y="415" as="targetPoint" />
          </mxGeometry>
        </mxCell>
        <mxCell id="oKFqAY_ekMmdnwvd7Q_i-55" value="&lt;font style=&quot;font-size: 14px&quot;&gt;WORKSHOP&lt;/font&gt;" style="whiteSpace=wrap;html=1;align=center;fontSize=12;" parent="1" vertex="1">
          <mxGeometry x="670" y="560" width="140" height="50" as="geometry" />
        </mxCell>
        <mxCell id="oKFqAY_ekMmdnwvd7Q_i-56" value="&lt;font style=&quot;font-size: 14px&quot;&gt;EVENT&lt;/font&gt;" style="whiteSpace=wrap;html=1;align=center;fontSize=12;" parent="1" vertex="1">
          <mxGeometry x="690" y="-50" width="140" height="50" as="geometry" />
        </mxCell>
        <mxCell id="oKFqAY_ekMmdnwvd7Q_i-57" value="&lt;font style=&quot;font-size: 12px&quot;&gt;Organizer&lt;/font&gt;" style="ellipse;whiteSpace=wrap;html=1;align=center;fontSize=14;" parent="1" vertex="1">
          <mxGeometry x="840" y="-100" width="80" height="40" as="geometry" />
        </mxCell>
        <mxCell id="oKFqAY_ekMmdnwvd7Q_i-60" value="&lt;font style=&quot;font-size: 12px&quot;&gt;&lt;u&gt;EvID&lt;/u&gt;&lt;/font&gt;" style="ellipse;whiteSpace=wrap;html=1;align=center;fontSize=14;" parent="1" vertex="1">
          <mxGeometry x="620" y="-100" width="70" height="35" as="geometry" />
        </mxCell>
        <mxCell id="oKFqAY_ekMmdnwvd7Q_i-63" value="" style="endArrow=none;html=1;rounded=0;fontSize=12;" parent="1" source="oKFqAY_ekMmdnwvd7Q_i-57" target="oKFqAY_ekMmdnwvd7Q_i-56" edge="1">
          <mxGeometry relative="1" as="geometry">
            <mxPoint x="505" y="60" as="sourcePoint" />
            <mxPoint x="800" y="-20" as="targetPoint" />
          </mxGeometry>
        </mxCell>
        <mxCell id="oKFqAY_ekMmdnwvd7Q_i-65" value="" style="endArrow=none;html=1;rounded=0;fontSize=12;" parent="1" source="oKFqAY_ekMmdnwvd7Q_i-85" target="oKFqAY_ekMmdnwvd7Q_i-56" edge="1">
          <mxGeometry relative="1" as="geometry">
            <mxPoint x="760" y="-70" as="sourcePoint" />
            <mxPoint x="650" y="70" as="targetPoint" />
          </mxGeometry>
        </mxCell>
        <mxCell id="oKFqAY_ekMmdnwvd7Q_i-66" value="" style="endArrow=none;html=1;rounded=0;fontSize=12;" parent="1" source="oKFqAY_ekMmdnwvd7Q_i-3" target="oKFqAY_ekMmdnwvd7Q_i-56" edge="1">
          <mxGeometry relative="1" as="geometry">
            <mxPoint x="480" y="70" as="sourcePoint" />
            <mxPoint x="640" y="70" as="targetPoint" />
          </mxGeometry>
        </mxCell>
        <mxCell id="oKFqAY_ekMmdnwvd7Q_i-67" value="" style="endArrow=none;html=1;rounded=0;fontSize=12;" parent="1" source="oKFqAY_ekMmdnwvd7Q_i-60" target="oKFqAY_ekMmdnwvd7Q_i-56" edge="1">
          <mxGeometry relative="1" as="geometry">
            <mxPoint x="490" y="70" as="sourcePoint" />
            <mxPoint x="650" y="70" as="targetPoint" />
          </mxGeometry>
        </mxCell>
        <mxCell id="oKFqAY_ekMmdnwvd7Q_i-68" value="Duartion" style="ellipse;whiteSpace=wrap;html=1;align=center;fontSize=12;" parent="1" vertex="1">
          <mxGeometry x="710" y="675" width="80" height="40" as="geometry" />
        </mxCell>
        <mxCell id="oKFqAY_ekMmdnwvd7Q_i-69" value="EndDate" style="ellipse;whiteSpace=wrap;html=1;align=center;fontSize=12;" parent="1" vertex="1">
          <mxGeometry x="775" y="735" width="80" height="40" as="geometry" />
        </mxCell>
        <mxCell id="oKFqAY_ekMmdnwvd7Q_i-70" value="StartDate" style="ellipse;whiteSpace=wrap;html=1;align=center;fontSize=12;" parent="1" vertex="1">
          <mxGeometry x="660" y="735" width="80" height="40" as="geometry" />
        </mxCell>
        <mxCell id="oKFqAY_ekMmdnwvd7Q_i-71" value="Capacity" style="ellipse;whiteSpace=wrap;html=1;align=center;fontSize=12;" parent="1" vertex="1">
          <mxGeometry x="780" y="645" width="75" height="40" as="geometry" />
        </mxCell>
        <mxCell id="oKFqAY_ekMmdnwvd7Q_i-72" value="Tutor" style="ellipse;whiteSpace=wrap;html=1;align=center;fontSize=12;" parent="1" vertex="1">
          <mxGeometry x="830" y="605" width="70" height="40" as="geometry" />
        </mxCell>
        <mxCell id="oKFqAY_ekMmdnwvd7Q_i-75" value="" style="endArrow=none;html=1;rounded=0;fontSize=12;" parent="1" source="oKFqAY_ekMmdnwvd7Q_i-69" target="oKFqAY_ekMmdnwvd7Q_i-68" edge="1">
          <mxGeometry relative="1" as="geometry">
            <mxPoint x="610" y="675" as="sourcePoint" />
            <mxPoint x="770" y="675" as="targetPoint" />
          </mxGeometry>
        </mxCell>
        <mxCell id="oKFqAY_ekMmdnwvd7Q_i-76" value="" style="endArrow=none;html=1;rounded=0;fontSize=12;" parent="1" source="oKFqAY_ekMmdnwvd7Q_i-70" target="oKFqAY_ekMmdnwvd7Q_i-68" edge="1">
          <mxGeometry relative="1" as="geometry">
            <mxPoint x="610" y="675" as="sourcePoint" />
            <mxPoint x="760" y="695" as="targetPoint" />
          </mxGeometry>
        </mxCell>
        <mxCell id="oKFqAY_ekMmdnwvd7Q_i-78" value="" style="endArrow=none;html=1;rounded=0;fontSize=12;" parent="1" source="oKFqAY_ekMmdnwvd7Q_i-55" target="oKFqAY_ekMmdnwvd7Q_i-68" edge="1">
          <mxGeometry relative="1" as="geometry">
            <mxPoint x="610" y="675" as="sourcePoint" />
            <mxPoint x="770" y="675" as="targetPoint" />
          </mxGeometry>
        </mxCell>
        <mxCell id="oKFqAY_ekMmdnwvd7Q_i-79" value="" style="endArrow=none;html=1;rounded=0;fontSize=12;" parent="1" source="oKFqAY_ekMmdnwvd7Q_i-55" target="oKFqAY_ekMmdnwvd7Q_i-71" edge="1">
          <mxGeometry relative="1" as="geometry">
            <mxPoint x="610" y="675" as="sourcePoint" />
            <mxPoint x="770" y="675" as="targetPoint" />
          </mxGeometry>
        </mxCell>
        <mxCell id="oKFqAY_ekMmdnwvd7Q_i-80" value="" style="endArrow=none;html=1;rounded=0;fontSize=12;" parent="1" source="oKFqAY_ekMmdnwvd7Q_i-55" target="oKFqAY_ekMmdnwvd7Q_i-72" edge="1">
          <mxGeometry relative="1" as="geometry">
            <mxPoint x="610" y="675" as="sourcePoint" />
            <mxPoint x="670" y="685" as="targetPoint" />
          </mxGeometry>
        </mxCell>
        <mxCell id="oKFqAY_ekMmdnwvd7Q_i-81" value="" style="endArrow=none;html=1;rounded=0;fontSize=12;" parent="1" source="oKFqAY_ekMmdnwvd7Q_i-73" target="oKFqAY_ekMmdnwvd7Q_i-55" edge="1">
          <mxGeometry relative="1" as="geometry">
            <mxPoint x="597.5" y="675" as="sourcePoint" />
            <mxPoint x="757.5" y="675" as="targetPoint" />
          </mxGeometry>
        </mxCell>
        <mxCell id="oKFqAY_ekMmdnwvd7Q_i-82" value="" style="endArrow=none;html=1;rounded=0;fontSize=12;" parent="1" source="oKFqAY_ekMmdnwvd7Q_i-40" target="oKFqAY_ekMmdnwvd7Q_i-55" edge="1">
          <mxGeometry relative="1" as="geometry">
            <mxPoint x="610" y="675" as="sourcePoint" />
            <mxPoint x="770" y="675" as="targetPoint" />
          </mxGeometry>
        </mxCell>
        <mxCell id="oKFqAY_ekMmdnwvd7Q_i-84" value="" style="endArrow=none;html=1;rounded=0;fontSize=12;" parent="1" source="oKFqAY_ekMmdnwvd7Q_i-6" target="oKFqAY_ekMmdnwvd7Q_i-55" edge="1">
          <mxGeometry relative="1" as="geometry">
            <mxPoint x="610" y="675" as="sourcePoint" />
            <mxPoint x="770" y="675" as="targetPoint" />
          </mxGeometry>
        </mxCell>
        <mxCell id="oKFqAY_ekMmdnwvd7Q_i-73" value="Type" style="ellipse;whiteSpace=wrap;html=1;align=center;fontSize=12;" parent="1" vertex="1">
          <mxGeometry x="687.5" y="625" width="70" height="40" as="geometry" />
        </mxCell>
        <mxCell id="oKFqAY_ekMmdnwvd7Q_i-85" value="Duartion" style="ellipse;whiteSpace=wrap;html=1;align=center;fontSize=12;" parent="1" vertex="1">
          <mxGeometry x="750" y="-130" width="80" height="40" as="geometry" />
        </mxCell>
        <mxCell id="oKFqAY_ekMmdnwvd7Q_i-86" value="StartDate" style="ellipse;whiteSpace=wrap;html=1;align=center;fontSize=12;" parent="1" vertex="1">
          <mxGeometry x="700" y="-190" width="80" height="40" as="geometry" />
        </mxCell>
        <mxCell id="oKFqAY_ekMmdnwvd7Q_i-87" value="EndDate" style="ellipse;whiteSpace=wrap;html=1;align=center;fontSize=12;" parent="1" vertex="1">
          <mxGeometry x="820" y="-190" width="80" height="40" as="geometry" />
        </mxCell>
        <mxCell id="oKFqAY_ekMmdnwvd7Q_i-89" value="" style="endArrow=none;html=1;rounded=0;fontSize=12;" parent="1" source="oKFqAY_ekMmdnwvd7Q_i-87" target="oKFqAY_ekMmdnwvd7Q_i-85" edge="1">
          <mxGeometry relative="1" as="geometry">
            <mxPoint x="550" y="-90" as="sourcePoint" />
            <mxPoint x="710" y="-90" as="targetPoint" />
          </mxGeometry>
        </mxCell>
        <mxCell id="oKFqAY_ekMmdnwvd7Q_i-90" value="" style="endArrow=none;html=1;rounded=0;fontSize=12;" parent="1" source="oKFqAY_ekMmdnwvd7Q_i-86" target="oKFqAY_ekMmdnwvd7Q_i-85" edge="1">
          <mxGeometry relative="1" as="geometry">
            <mxPoint x="550" y="-90" as="sourcePoint" />
            <mxPoint x="710" y="-90" as="targetPoint" />
          </mxGeometry>
        </mxCell>
        <mxCell id="oKFqAY_ekMmdnwvd7Q_i-13" value="Email" style="ellipse;whiteSpace=wrap;html=1;" parent="1" vertex="1">
          <mxGeometry x="165" y="170" width="70" height="30" as="geometry" />
        </mxCell>
        <mxCell id="oKFqAY_ekMmdnwvd7Q_i-99" value="MANAGES" style="shape=rhombus;perimeter=rhombusPerimeter;whiteSpace=wrap;html=1;align=center;fontSize=12;" parent="1" vertex="1">
          <mxGeometry x="25" y="390" width="110" height="60" as="geometry" />
        </mxCell>
        <mxCell id="oKFqAY_ekMmdnwvd7Q_i-101" value="" style="endArrow=none;html=1;rounded=0;fontSize=12;" parent="1" source="IZ-xSOK3iDzSilFH6v1d-1" target="oKFqAY_ekMmdnwvd7Q_i-99" edge="1">
          <mxGeometry relative="1" as="geometry">
            <mxPoint x="380" y="360" as="sourcePoint" />
            <mxPoint x="540" y="360" as="targetPoint" />
          </mxGeometry>
        </mxCell>
        <mxCell id="oKFqAY_ekMmdnwvd7Q_i-102" value="&lt;font style=&quot;font-size: 14px&quot;&gt;1&lt;/font&gt;" style="resizable=0;html=1;align=right;verticalAlign=bottom;fontSize=12;" parent="oKFqAY_ekMmdnwvd7Q_i-101" connectable="0" vertex="1">
          <mxGeometry x="1" relative="1" as="geometry">
            <mxPoint x="1" y="-10" as="offset" />
          </mxGeometry>
        </mxCell>
        <mxCell id="oKFqAY_ekMmdnwvd7Q_i-105" value="" style="shape=link;html=1;rounded=0;fontSize=12;" parent="1" source="oKFqAY_ekMmdnwvd7Q_i-46" target="oKFqAY_ekMmdnwvd7Q_i-99" edge="1">
          <mxGeometry relative="1" as="geometry">
            <mxPoint x="380" y="440" as="sourcePoint" />
            <mxPoint x="540" y="440" as="targetPoint" />
          </mxGeometry>
        </mxCell>
        <mxCell id="oKFqAY_ekMmdnwvd7Q_i-106" value="&lt;font style=&quot;font-size: 14px&quot;&gt;1&lt;/font&gt;" style="resizable=0;html=1;align=right;verticalAlign=bottom;fontSize=12;" parent="oKFqAY_ekMmdnwvd7Q_i-105" connectable="0" vertex="1">
          <mxGeometry x="1" relative="1" as="geometry">
            <mxPoint x="1" y="30" as="offset" />
          </mxGeometry>
        </mxCell>
        <mxCell id="oKFqAY_ekMmdnwvd7Q_i-107" value="HAS" style="shape=rhombus;perimeter=rhombusPerimeter;whiteSpace=wrap;html=1;align=center;fontSize=12;" parent="1" vertex="1">
          <mxGeometry x="157.5" y="395" width="110" height="50" as="geometry" />
        </mxCell>
        <mxCell id="oKFqAY_ekMmdnwvd7Q_i-108" value="" style="shape=link;html=1;rounded=0;fontSize=12;" parent="1" source="oKFqAY_ekMmdnwvd7Q_i-46" target="oKFqAY_ekMmdnwvd7Q_i-107" edge="1">
          <mxGeometry relative="1" as="geometry">
            <mxPoint x="380" y="440" as="sourcePoint" />
            <mxPoint x="540" y="440" as="targetPoint" />
          </mxGeometry>
        </mxCell>
        <mxCell id="oKFqAY_ekMmdnwvd7Q_i-109" value="&lt;font style=&quot;font-size: 14px&quot;&gt;1&lt;/font&gt;" style="resizable=0;html=1;align=right;verticalAlign=bottom;fontSize=12;" parent="oKFqAY_ekMmdnwvd7Q_i-108" connectable="0" vertex="1">
          <mxGeometry x="1" relative="1" as="geometry">
            <mxPoint x="13" y="30" as="offset" />
          </mxGeometry>
        </mxCell>
        <mxCell id="oKFqAY_ekMmdnwvd7Q_i-110" value="" style="endArrow=none;html=1;rounded=0;fontSize=12;" parent="1" source="IZ-xSOK3iDzSilFH6v1d-1" target="oKFqAY_ekMmdnwvd7Q_i-107" edge="1">
          <mxGeometry relative="1" as="geometry">
            <mxPoint x="380" y="440" as="sourcePoint" />
            <mxPoint x="540" y="440" as="targetPoint" />
          </mxGeometry>
        </mxCell>
        <mxCell id="oKFqAY_ekMmdnwvd7Q_i-111" value="&lt;font style=&quot;font-size: 14px&quot;&gt;N&lt;/font&gt;" style="resizable=0;html=1;align=right;verticalAlign=bottom;fontSize=12;" parent="oKFqAY_ekMmdnwvd7Q_i-110" connectable="0" vertex="1">
          <mxGeometry x="1" relative="1" as="geometry">
            <mxPoint x="13" y="-15" as="offset" />
          </mxGeometry>
        </mxCell>
        <mxCell id="oKFqAY_ekMmdnwvd7Q_i-112" value="TAKES" style="shape=rhombus;perimeter=rhombusPerimeter;whiteSpace=wrap;html=1;align=center;fontSize=12;" parent="1" vertex="1">
          <mxGeometry x="450" y="475" width="100" height="60" as="geometry" />
        </mxCell>
        <mxCell id="oKFqAY_ekMmdnwvd7Q_i-116" value="" style="endArrow=none;html=1;rounded=0;fontSize=12;" parent="1" source="IZ-xSOK3iDzSilFH6v1d-1" target="oKFqAY_ekMmdnwvd7Q_i-112" edge="1">
          <mxGeometry relative="1" as="geometry">
            <mxPoint x="380" y="440" as="sourcePoint" />
            <mxPoint x="540" y="440" as="targetPoint" />
          </mxGeometry>
        </mxCell>
        <mxCell id="oKFqAY_ekMmdnwvd7Q_i-117" value="&lt;font style=&quot;font-size: 14px&quot;&gt;N&lt;/font&gt;" style="resizable=0;html=1;align=right;verticalAlign=bottom;fontSize=12;" parent="oKFqAY_ekMmdnwvd7Q_i-116" connectable="0" vertex="1">
          <mxGeometry x="1" relative="1" as="geometry">
            <mxPoint y="-13" as="offset" />
          </mxGeometry>
        </mxCell>
        <mxCell id="oKFqAY_ekMmdnwvd7Q_i-118" value="" style="endArrow=none;html=1;rounded=0;fontSize=12;" parent="1" source="oKFqAY_ekMmdnwvd7Q_i-55" target="oKFqAY_ekMmdnwvd7Q_i-112" edge="1">
          <mxGeometry relative="1" as="geometry">
            <mxPoint x="380" y="440" as="sourcePoint" />
            <mxPoint x="540" y="440" as="targetPoint" />
          </mxGeometry>
        </mxCell>
        <mxCell id="oKFqAY_ekMmdnwvd7Q_i-119" value="&lt;font style=&quot;font-size: 14px&quot;&gt;M&lt;/font&gt;" style="resizable=0;html=1;align=right;verticalAlign=bottom;fontSize=12;" parent="oKFqAY_ekMmdnwvd7Q_i-118" connectable="0" vertex="1">
          <mxGeometry x="1" relative="1" as="geometry">
            <mxPoint x="38" y="4" as="offset" />
          </mxGeometry>
        </mxCell>
        <mxCell id="oKFqAY_ekMmdnwvd7Q_i-120" value="Organizes" style="shape=rhombus;perimeter=rhombusPerimeter;whiteSpace=wrap;html=1;align=center;fontSize=14;" parent="1" vertex="1">
          <mxGeometry x="687.5" y="400" width="120" height="60" as="geometry" />
        </mxCell>
        <mxCell id="oKFqAY_ekMmdnwvd7Q_i-121" value="" style="shape=link;html=1;rounded=0;fontSize=14;" parent="1" source="oKFqAY_ekMmdnwvd7Q_i-120" target="oKFqAY_ekMmdnwvd7Q_i-55" edge="1">
          <mxGeometry relative="1" as="geometry">
            <mxPoint x="610" y="470" as="sourcePoint" />
            <mxPoint x="780" y="500" as="targetPoint" />
          </mxGeometry>
        </mxCell>
        <mxCell id="oKFqAY_ekMmdnwvd7Q_i-122" value="N" style="resizable=0;html=1;align=right;verticalAlign=bottom;fontSize=14;" parent="oKFqAY_ekMmdnwvd7Q_i-121" connectable="0" vertex="1">
          <mxGeometry x="1" relative="1" as="geometry">
            <mxPoint x="24" y="-70" as="offset" />
          </mxGeometry>
        </mxCell>
        <mxCell id="oKFqAY_ekMmdnwvd7Q_i-123" value="" style="endArrow=none;html=1;rounded=0;fontSize=14;" parent="1" source="IZ-xSOK3iDzSilFH6v1d-3" target="oKFqAY_ekMmdnwvd7Q_i-120" edge="1">
          <mxGeometry relative="1" as="geometry">
            <mxPoint x="610" y="470" as="sourcePoint" />
            <mxPoint x="680" y="370" as="targetPoint" />
          </mxGeometry>
        </mxCell>
        <mxCell id="oKFqAY_ekMmdnwvd7Q_i-124" value="M" style="resizable=0;html=1;align=right;verticalAlign=bottom;fontSize=14;" parent="oKFqAY_ekMmdnwvd7Q_i-123" connectable="0" vertex="1">
          <mxGeometry x="1" relative="1" as="geometry">
            <mxPoint x="17" y="-5" as="offset" />
          </mxGeometry>
        </mxCell>
        <mxCell id="oKFqAY_ekMmdnwvd7Q_i-127" value="MANAGES" style="shape=rhombus;perimeter=rhombusPerimeter;whiteSpace=wrap;html=1;align=center;fontSize=12;" parent="1" vertex="1">
          <mxGeometry x="450" y="230" width="110" height="60" as="geometry" />
        </mxCell>
        <mxCell id="oKFqAY_ekMmdnwvd7Q_i-128" value="" style="shape=link;html=1;rounded=0;fontSize=12;" parent="1" source="IZ-xSOK3iDzSilFH6v1d-3" target="oKFqAY_ekMmdnwvd7Q_i-127" edge="1">
          <mxGeometry relative="1" as="geometry">
            <mxPoint x="573.8392857142858" y="405" as="sourcePoint" />
            <mxPoint x="925" y="310" as="targetPoint" />
          </mxGeometry>
        </mxCell>
        <mxCell id="oKFqAY_ekMmdnwvd7Q_i-129" value="&lt;font style=&quot;font-size: 14px&quot;&gt;1&lt;/font&gt;" style="resizable=0;html=1;align=right;verticalAlign=bottom;fontSize=12;" parent="oKFqAY_ekMmdnwvd7Q_i-128" connectable="0" vertex="1">
          <mxGeometry x="1" relative="1" as="geometry">
            <mxPoint x="24" y="22" as="offset" />
          </mxGeometry>
        </mxCell>
        <mxCell id="oKFqAY_ekMmdnwvd7Q_i-130" value="" style="shape=link;html=1;rounded=0;fontSize=12;" parent="1" source="IZ-xSOK3iDzSilFH6v1d-1" target="oKFqAY_ekMmdnwvd7Q_i-127" edge="1">
          <mxGeometry relative="1" as="geometry">
            <mxPoint x="660" y="370.00157894736833" as="sourcePoint" />
            <mxPoint x="485.9066305818676" y="377.6372530446548" as="targetPoint" />
          </mxGeometry>
        </mxCell>
        <mxCell id="oKFqAY_ekMmdnwvd7Q_i-131" value="&lt;font style=&quot;font-size: 14px&quot;&gt;1&lt;/font&gt;" style="resizable=0;html=1;align=right;verticalAlign=bottom;fontSize=12;" parent="oKFqAY_ekMmdnwvd7Q_i-130" connectable="0" vertex="1">
          <mxGeometry x="1" relative="1" as="geometry">
            <mxPoint x="-17" y="21" as="offset" />
          </mxGeometry>
        </mxCell>
        <mxCell id="oKFqAY_ekMmdnwvd7Q_i-132" value="HAS" style="shape=rhombus;perimeter=rhombusPerimeter;whiteSpace=wrap;html=1;align=center;fontSize=12;" parent="1" vertex="1">
          <mxGeometry x="450" y="330" width="110" height="50" as="geometry" />
        </mxCell>
        <mxCell id="oKFqAY_ekMmdnwvd7Q_i-133" value="&lt;font style=&quot;font-size: 12px&quot;&gt;Phone&lt;/font&gt;" style="ellipse;shape=doubleEllipse;margin=3;whiteSpace=wrap;html=1;align=center;fontSize=14;" parent="1" vertex="1">
          <mxGeometry x="295" y="130" width="70" height="40" as="geometry" />
        </mxCell>
        <mxCell id="oKFqAY_ekMmdnwvd7Q_i-134" value="ATTENDS" style="shape=rhombus;perimeter=rhombusPerimeter;whiteSpace=wrap;html=1;align=center;fontSize=12;" parent="1" vertex="1">
          <mxGeometry x="450" y="100" width="120" height="60" as="geometry" />
        </mxCell>
        <mxCell id="oKFqAY_ekMmdnwvd7Q_i-8" value="Year" style="ellipse;whiteSpace=wrap;html=1;" parent="1" vertex="1">
          <mxGeometry x="267.5" y="195" width="65" height="30" as="geometry" />
        </mxCell>
        <mxCell id="oKFqAY_ekMmdnwvd7Q_i-136" value="" style="endArrow=none;html=1;rounded=0;fontSize=12;" parent="1" source="oKFqAY_ekMmdnwvd7Q_i-56" target="oKFqAY_ekMmdnwvd7Q_i-134" edge="1">
          <mxGeometry relative="1" as="geometry">
            <mxPoint x="460" y="188.89" as="sourcePoint" />
            <mxPoint x="620" y="188.89" as="targetPoint" />
          </mxGeometry>
        </mxCell>
        <mxCell id="oKFqAY_ekMmdnwvd7Q_i-137" value="&lt;font style=&quot;font-size: 14px&quot;&gt;M&lt;/font&gt;" style="resizable=0;html=1;align=right;verticalAlign=bottom;fontSize=12;" parent="oKFqAY_ekMmdnwvd7Q_i-136" connectable="0" vertex="1">
          <mxGeometry x="1" relative="1" as="geometry">
            <mxPoint x="8" y="-6" as="offset" />
          </mxGeometry>
        </mxCell>
        <mxCell id="oKFqAY_ekMmdnwvd7Q_i-138" value="" style="endArrow=none;html=1;rounded=0;fontSize=12;" parent="1" source="IZ-xSOK3iDzSilFH6v1d-1" target="oKFqAY_ekMmdnwvd7Q_i-134" edge="1">
          <mxGeometry relative="1" as="geometry">
            <mxPoint x="450" y="190" as="sourcePoint" />
            <mxPoint x="610" y="190" as="targetPoint" />
          </mxGeometry>
        </mxCell>
        <mxCell id="oKFqAY_ekMmdnwvd7Q_i-139" value="&lt;font style=&quot;font-size: 14px&quot;&gt;N&lt;/font&gt;" style="resizable=0;html=1;align=right;verticalAlign=bottom;fontSize=12;" parent="oKFqAY_ekMmdnwvd7Q_i-138" connectable="0" vertex="1">
          <mxGeometry x="1" relative="1" as="geometry">
            <mxPoint x="-30" y="10" as="offset" />
          </mxGeometry>
        </mxCell>
        <mxCell id="oKFqAY_ekMmdnwvd7Q_i-140" value="&lt;font style=&quot;font-size: 12px&quot;&gt;ORGANİZES&lt;/font&gt;" style="shape=rhombus;perimeter=rhombusPerimeter;whiteSpace=wrap;html=1;align=center;fontSize=14;" parent="1" vertex="1">
          <mxGeometry x="710" y="70" width="110" height="50" as="geometry" />
        </mxCell>
        <mxCell id="oKFqAY_ekMmdnwvd7Q_i-141" value="" style="shape=link;html=1;rounded=0;fontSize=12;" parent="1" source="IZ-xSOK3iDzSilFH6v1d-3" target="oKFqAY_ekMmdnwvd7Q_i-140" edge="1">
          <mxGeometry relative="1" as="geometry">
            <mxPoint x="680" y="120" as="sourcePoint" />
            <mxPoint x="840" y="120" as="targetPoint" />
          </mxGeometry>
        </mxCell>
        <mxCell id="oKFqAY_ekMmdnwvd7Q_i-142" value="&lt;font style=&quot;font-size: 14px&quot;&gt;N&lt;/font&gt;" style="resizable=0;html=1;align=right;verticalAlign=bottom;fontSize=12;" parent="oKFqAY_ekMmdnwvd7Q_i-141" connectable="0" vertex="1">
          <mxGeometry x="1" relative="1" as="geometry">
            <mxPoint x="-13" y="21" as="offset" />
          </mxGeometry>
        </mxCell>
        <mxCell id="oKFqAY_ekMmdnwvd7Q_i-143" value="" style="endArrow=none;html=1;rounded=0;fontSize=14;" parent="1" source="oKFqAY_ekMmdnwvd7Q_i-56" target="oKFqAY_ekMmdnwvd7Q_i-140" edge="1">
          <mxGeometry relative="1" as="geometry">
            <mxPoint x="680" y="110" as="sourcePoint" />
            <mxPoint x="840" y="110" as="targetPoint" />
          </mxGeometry>
        </mxCell>
        <mxCell id="oKFqAY_ekMmdnwvd7Q_i-144" value="M" style="resizable=0;html=1;align=right;verticalAlign=bottom;fontSize=14;" parent="oKFqAY_ekMmdnwvd7Q_i-143" connectable="0" vertex="1">
          <mxGeometry x="1" relative="1" as="geometry">
            <mxPoint x="-6" y="-1" as="offset" />
          </mxGeometry>
        </mxCell>
        <mxCell id="oKFqAY_ekMmdnwvd7Q_i-145" value="" style="shape=link;html=1;rounded=0;fontSize=14;" parent="1" source="IZ-xSOK3iDzSilFH6v1d-3" target="oKFqAY_ekMmdnwvd7Q_i-132" edge="1">
          <mxGeometry relative="1" as="geometry">
            <mxPoint x="400" y="420" as="sourcePoint" />
            <mxPoint x="560" y="420" as="targetPoint" />
          </mxGeometry>
        </mxCell>
        <mxCell id="oKFqAY_ekMmdnwvd7Q_i-146" value="M" style="resizable=0;html=1;align=right;verticalAlign=bottom;fontSize=14;" parent="oKFqAY_ekMmdnwvd7Q_i-145" connectable="0" vertex="1">
          <mxGeometry x="1" relative="1" as="geometry">
            <mxPoint x="13" y="-5" as="offset" />
          </mxGeometry>
        </mxCell>
        <mxCell id="oKFqAY_ekMmdnwvd7Q_i-147" value="" style="endArrow=none;html=1;rounded=0;fontSize=14;" parent="1" source="IZ-xSOK3iDzSilFH6v1d-1" target="oKFqAY_ekMmdnwvd7Q_i-132" edge="1">
          <mxGeometry relative="1" as="geometry">
            <mxPoint x="400" y="420" as="sourcePoint" />
            <mxPoint x="560" y="420" as="targetPoint" />
          </mxGeometry>
        </mxCell>
        <mxCell id="oKFqAY_ekMmdnwvd7Q_i-148" value="N" style="resizable=0;html=1;align=right;verticalAlign=bottom;fontSize=14;" parent="oKFqAY_ekMmdnwvd7Q_i-147" connectable="0" vertex="1">
          <mxGeometry x="1" relative="1" as="geometry">
            <mxPoint x="-9" y="-6" as="offset" />
          </mxGeometry>
        </mxCell>
        <mxCell id="y9WejVM5NHGMxxci0WxN-1" value="&lt;font style=&quot;font-size: 12px&quot;&gt;Hours&lt;/font&gt;" style="ellipse;whiteSpace=wrap;html=1;align=center;fontSize=14;" vertex="1" parent="1">
          <mxGeometry x="420" y="545" width="70" height="30" as="geometry" />
        </mxCell>
        <mxCell id="y9WejVM5NHGMxxci0WxN-2" value="" style="endArrow=none;html=1;rounded=0;fontSize=12;" edge="1" parent="1" source="oKFqAY_ekMmdnwvd7Q_i-112" target="y9WejVM5NHGMxxci0WxN-1">
          <mxGeometry relative="1" as="geometry">
            <mxPoint x="550" y="520" as="sourcePoint" />
            <mxPoint x="710" y="520" as="targetPoint" />
          </mxGeometry>
        </mxCell>
      </root>
    </mxGraphModel>
  </diagram>
</mxfile>
